<svg width="72" height="24" viewBox="0 0 72 24" fill="none" xmlns="http://www.w3.org/2000/svg">
<path fill-rule="evenodd" clip-rule="evenodd" d="M10 2.25C5.71979 2.25 2.25 5.71979 2.25 10C2.25 14.2802 5.71979 17.75 10 17.75C11.87 17.75 13.5853 17.0877 14.9242 15.9848L20.4697 21.5303L20.5538 21.6029C20.8474 21.8208 21.2641 21.7966 21.5303 21.5303C21.8232 21.2374 21.8232 20.7626 21.5303 20.4697L15.9848 14.9242C17.0877 13.5853 17.75 11.87 17.75 10C17.75 5.71979 14.2802 2.25 10 2.25ZM10 3.75C13.4518 3.75 16.25 6.54822 16.25 10C16.25 13.4518 13.4518 16.25 10 16.25C6.54822 16.25 3.75 13.4518 3.75 10C3.75 6.54822 6.54822 3.75 10 3.75Z" fill="#1D1D1B"/>
<path fill-rule="evenodd" clip-rule="evenodd" d="M72 8.75C72 8.33579 71.5395 8 70.9714 8H49.0286L48.889 8.00685C48.387 8.05651 48 8.3703 48 8.75C48 9.16421 48.4605 9.5 49.0286 9.5H70.9714L71.111 9.49315C71.613 9.44349 72 9.1297 72 8.75ZM71.75 16C71.75 15.5858 71.4142 15.25 71 15.25H55L54.8982 15.2568C54.5322 15.3065 54.25 15.6203 54.25 16C54.25 16.4142 54.5858 16.75 55 16.75H71L71.1018 16.7432C71.4678 16.6935 71.75 16.3797 71.75 16Z" fill="#1D1D1B"/>
</svg>
